<?xml version="1.0" encoding="utf-8"?>
<svg xmlns="http://www.w3.org/2000/svg" xmlns:xlink="http://www.w3.org/1999/xlink" width="600" height="400" viewBox="0 0 2400 1600">
<defs>
  <clipPath id="clip940">
    <rect x="0" y="0" width="2400" height="1600"/>
  </clipPath>
</defs>
<path clip-path="url(#clip940)" d="
M0 1600 L2400 1600 L2400 0 L0 0  Z
  " fill="#ffffff" fill-rule="evenodd" fill-opacity="1"/>
<defs>
  <clipPath id="clip941">
    <rect x="480" y="0" width="1681" height="1600"/>
  </clipPath>
</defs>
<path clip-path="url(#clip940)" d="
M193.936 1486.45 L2352.76 1486.45 L2352.76 47.2441 L193.936 47.2441  Z
  " fill="#ffffff" fill-rule="evenodd" fill-opacity="1"/>
<defs>
  <clipPath id="clip942">
    <rect x="193" y="47" width="2160" height="1440"/>
  </clipPath>
</defs>
<polyline clip-path="url(#clip942)" style="stroke:#000000; stroke-linecap:butt; stroke-linejoin:round; stroke-width:2; stroke-opacity:0.1; fill:none" points="
  481.326,1486.45 481.326,47.2441 
  "/>
<polyline clip-path="url(#clip942)" style="stroke:#000000; stroke-linecap:butt; stroke-linejoin:round; stroke-width:2; stroke-opacity:0.1; fill:none" points="
  933.909,1486.45 933.909,47.2441 
  "/>
<polyline clip-path="url(#clip942)" style="stroke:#000000; stroke-linecap:butt; stroke-linejoin:round; stroke-width:2; stroke-opacity:0.1; fill:none" points="
  1386.49,1486.45 1386.49,47.2441 
  "/>
<polyline clip-path="url(#clip942)" style="stroke:#000000; stroke-linecap:butt; stroke-linejoin:round; stroke-width:2; stroke-opacity:0.1; fill:none" points="
  1839.07,1486.45 1839.07,47.2441 
  "/>
<polyline clip-path="url(#clip942)" style="stroke:#000000; stroke-linecap:butt; stroke-linejoin:round; stroke-width:2; stroke-opacity:0.1; fill:none" points="
  2291.66,1486.45 2291.66,47.2441 
  "/>
<polyline clip-path="url(#clip940)" style="stroke:#000000; stroke-linecap:butt; stroke-linejoin:round; stroke-width:4; stroke-opacity:1; fill:none" points="
  193.936,1486.45 2352.76,1486.45 
  "/>
<polyline clip-path="url(#clip940)" style="stroke:#000000; stroke-linecap:butt; stroke-linejoin:round; stroke-width:4; stroke-opacity:1; fill:none" points="
  481.326,1486.45 481.326,1467.55 
  "/>
<polyline clip-path="url(#clip940)" style="stroke:#000000; stroke-linecap:butt; stroke-linejoin:round; stroke-width:4; stroke-opacity:1; fill:none" points="
  933.909,1486.45 933.909,1467.55 
  "/>
<polyline clip-path="url(#clip940)" style="stroke:#000000; stroke-linecap:butt; stroke-linejoin:round; stroke-width:4; stroke-opacity:1; fill:none" points="
  1386.49,1486.45 1386.49,1467.55 
  "/>
<polyline clip-path="url(#clip940)" style="stroke:#000000; stroke-linecap:butt; stroke-linejoin:round; stroke-width:4; stroke-opacity:1; fill:none" points="
  1839.07,1486.45 1839.07,1467.55 
  "/>
<polyline clip-path="url(#clip940)" style="stroke:#000000; stroke-linecap:butt; stroke-linejoin:round; stroke-width:4; stroke-opacity:1; fill:none" points="
  2291.66,1486.45 2291.66,1467.55 
  "/>
<path clip-path="url(#clip940)" d="M475.979 1544.91 L492.298 1544.91 L492.298 1548.85 L470.354 1548.85 L470.354 1544.91 Q473.016 1542.16 477.599 1537.53 Q482.206 1532.88 483.386 1531.53 Q485.632 1529.01 486.511 1527.27 Q487.414 1525.51 487.414 1523.82 Q487.414 1521.07 485.47 1519.33 Q483.548 1517.6 480.446 1517.6 Q478.247 1517.6 475.794 1518.36 Q473.363 1519.13 470.585 1520.68 L470.585 1515.95 Q473.409 1514.82 475.863 1514.24 Q478.317 1513.66 480.354 1513.66 Q485.724 1513.66 488.919 1516.35 Q492.113 1519.03 492.113 1523.52 Q492.113 1525.65 491.303 1527.57 Q490.516 1529.47 488.409 1532.07 Q487.831 1532.74 484.729 1535.95 Q481.627 1539.15 475.979 1544.91 Z" fill="#000000" fill-rule="evenodd" fill-opacity="1" /><path clip-path="url(#clip940)" d="M936.918 1518.36 L925.113 1536.81 L936.918 1536.81 L936.918 1518.36 M935.691 1514.29 L941.571 1514.29 L941.571 1536.81 L946.501 1536.81 L946.501 1540.7 L941.571 1540.7 L941.571 1548.85 L936.918 1548.85 L936.918 1540.7 L921.316 1540.7 L921.316 1536.19 L935.691 1514.29 Z" fill="#000000" fill-rule="evenodd" fill-opacity="1" /><path clip-path="url(#clip940)" d="M1386.9 1529.7 Q1383.75 1529.7 1381.9 1531.86 Q1380.07 1534.01 1380.07 1537.76 Q1380.07 1541.49 1381.9 1543.66 Q1383.75 1545.82 1386.9 1545.82 Q1390.04 1545.82 1391.87 1543.66 Q1393.73 1541.49 1393.73 1537.76 Q1393.73 1534.01 1391.87 1531.86 Q1390.04 1529.7 1386.9 1529.7 M1396.18 1515.05 L1396.18 1519.31 Q1394.42 1518.48 1392.61 1518.04 Q1390.83 1517.6 1389.07 1517.6 Q1384.44 1517.6 1381.99 1520.72 Q1379.56 1523.85 1379.21 1530.17 Q1380.58 1528.15 1382.64 1527.09 Q1384.7 1526 1387.17 1526 Q1392.38 1526 1395.39 1529.17 Q1398.42 1532.32 1398.42 1537.76 Q1398.42 1543.08 1395.28 1546.3 Q1392.13 1549.52 1386.9 1549.52 Q1380.9 1549.52 1377.73 1544.94 Q1374.56 1540.33 1374.56 1531.6 Q1374.56 1523.41 1378.45 1518.55 Q1382.34 1513.66 1388.89 1513.66 Q1390.65 1513.66 1392.43 1514.01 Q1394.23 1514.36 1396.18 1515.05 Z" fill="#000000" fill-rule="evenodd" fill-opacity="1" /><path clip-path="url(#clip940)" d="M1839.07 1532.44 Q1835.74 1532.44 1833.82 1534.22 Q1831.92 1536 1831.92 1539.13 Q1831.92 1542.25 1833.82 1544.03 Q1835.74 1545.82 1839.07 1545.82 Q1842.41 1545.82 1844.33 1544.03 Q1846.25 1542.23 1846.25 1539.13 Q1846.25 1536 1844.33 1534.22 Q1842.43 1532.44 1839.07 1532.44 M1834.4 1530.45 Q1831.39 1529.7 1829.7 1527.64 Q1828.03 1525.58 1828.03 1522.62 Q1828.03 1518.48 1830.97 1516.07 Q1833.94 1513.66 1839.07 1513.66 Q1844.24 1513.66 1847.18 1516.07 Q1850.12 1518.48 1850.12 1522.62 Q1850.12 1525.58 1848.43 1527.64 Q1846.76 1529.7 1843.77 1530.45 Q1847.15 1531.23 1849.03 1533.52 Q1850.93 1535.82 1850.93 1539.13 Q1850.93 1544.15 1847.85 1546.83 Q1844.79 1549.52 1839.07 1549.52 Q1833.36 1549.52 1830.28 1546.83 Q1827.22 1544.15 1827.22 1539.13 Q1827.22 1535.82 1829.12 1533.52 Q1831.02 1531.23 1834.4 1530.45 M1832.69 1523.06 Q1832.69 1525.75 1834.35 1527.25 Q1836.04 1528.76 1839.07 1528.76 Q1842.08 1528.76 1843.77 1527.25 Q1845.49 1525.75 1845.49 1523.06 Q1845.49 1520.38 1843.77 1518.87 Q1842.08 1517.37 1839.07 1517.37 Q1836.04 1517.37 1834.35 1518.87 Q1832.69 1520.38 1832.69 1523.06 Z" fill="#000000" fill-rule="evenodd" fill-opacity="1" /><path clip-path="url(#clip940)" d="M2266.34 1544.91 L2273.98 1544.91 L2273.98 1518.55 L2265.67 1520.21 L2265.67 1515.95 L2273.94 1514.29 L2278.61 1514.29 L2278.61 1544.91 L2286.25 1544.91 L2286.25 1548.85 L2266.34 1548.85 L2266.34 1544.91 Z" fill="#000000" fill-rule="evenodd" fill-opacity="1" /><path clip-path="url(#clip940)" d="M2305.7 1517.37 Q2302.09 1517.37 2300.26 1520.93 Q2298.45 1524.47 2298.45 1531.6 Q2298.45 1538.71 2300.26 1542.27 Q2302.09 1545.82 2305.7 1545.82 Q2309.33 1545.82 2311.14 1542.27 Q2312.96 1538.71 2312.96 1531.6 Q2312.96 1524.47 2311.14 1520.93 Q2309.33 1517.37 2305.7 1517.37 M2305.7 1513.66 Q2311.51 1513.66 2314.56 1518.27 Q2317.64 1522.85 2317.64 1531.6 Q2317.64 1540.33 2314.56 1544.94 Q2311.51 1549.52 2305.7 1549.52 Q2299.89 1549.52 2296.81 1544.94 Q2293.75 1540.33 2293.75 1531.6 Q2293.75 1522.85 2296.81 1518.27 Q2299.89 1513.66 2305.7 1513.66 Z" fill="#000000" fill-rule="evenodd" fill-opacity="1" /><polyline clip-path="url(#clip942)" style="stroke:#000000; stroke-linecap:butt; stroke-linejoin:round; stroke-width:2; stroke-opacity:0.1; fill:none" points="
  193.936,1445.77 2352.76,1445.77 
  "/>
<polyline clip-path="url(#clip942)" style="stroke:#000000; stroke-linecap:butt; stroke-linejoin:round; stroke-width:2; stroke-opacity:0.1; fill:none" points="
  193.936,1106.25 2352.76,1106.25 
  "/>
<polyline clip-path="url(#clip942)" style="stroke:#000000; stroke-linecap:butt; stroke-linejoin:round; stroke-width:2; stroke-opacity:0.1; fill:none" points="
  193.936,766.727 2352.76,766.727 
  "/>
<polyline clip-path="url(#clip942)" style="stroke:#000000; stroke-linecap:butt; stroke-linejoin:round; stroke-width:2; stroke-opacity:0.1; fill:none" points="
  193.936,427.207 2352.76,427.207 
  "/>
<polyline clip-path="url(#clip942)" style="stroke:#000000; stroke-linecap:butt; stroke-linejoin:round; stroke-width:2; stroke-opacity:0.1; fill:none" points="
  193.936,87.6867 2352.76,87.6867 
  "/>
<polyline clip-path="url(#clip940)" style="stroke:#000000; stroke-linecap:butt; stroke-linejoin:round; stroke-width:4; stroke-opacity:1; fill:none" points="
  193.936,1486.45 193.936,47.2441 
  "/>
<polyline clip-path="url(#clip940)" style="stroke:#000000; stroke-linecap:butt; stroke-linejoin:round; stroke-width:4; stroke-opacity:1; fill:none" points="
  193.936,1445.77 212.834,1445.77 
  "/>
<polyline clip-path="url(#clip940)" style="stroke:#000000; stroke-linecap:butt; stroke-linejoin:round; stroke-width:4; stroke-opacity:1; fill:none" points="
  193.936,1106.25 212.834,1106.25 
  "/>
<polyline clip-path="url(#clip940)" style="stroke:#000000; stroke-linecap:butt; stroke-linejoin:round; stroke-width:4; stroke-opacity:1; fill:none" points="
  193.936,766.727 212.834,766.727 
  "/>
<polyline clip-path="url(#clip940)" style="stroke:#000000; stroke-linecap:butt; stroke-linejoin:round; stroke-width:4; stroke-opacity:1; fill:none" points="
  193.936,427.207 212.834,427.207 
  "/>
<polyline clip-path="url(#clip940)" style="stroke:#000000; stroke-linecap:butt; stroke-linejoin:round; stroke-width:4; stroke-opacity:1; fill:none" points="
  193.936,87.6867 212.834,87.6867 
  "/>
<path clip-path="url(#clip940)" d="M50.9921 1446.22 L80.6679 1446.22 L80.6679 1450.15 L50.9921 1450.15 L50.9921 1446.22 Z" fill="#000000" fill-rule="evenodd" fill-opacity="1" /><path clip-path="url(#clip940)" d="M91.5706 1459.11 L99.2095 1459.11 L99.2095 1432.75 L90.8993 1434.41 L90.8993 1430.15 L99.1632 1428.49 L103.839 1428.49 L103.839 1459.11 L111.478 1459.11 L111.478 1463.05 L91.5706 1463.05 L91.5706 1459.11 Z" fill="#000000" fill-rule="evenodd" fill-opacity="1" /><path clip-path="url(#clip940)" d="M120.922 1457.17 L125.807 1457.17 L125.807 1463.05 L120.922 1463.05 L120.922 1457.17 Z" fill="#000000" fill-rule="evenodd" fill-opacity="1" /><path clip-path="url(#clip940)" d="M145.992 1431.57 Q142.381 1431.57 140.552 1435.13 Q138.746 1438.67 138.746 1445.8 Q138.746 1452.91 140.552 1456.47 Q142.381 1460.02 145.992 1460.02 Q149.626 1460.02 151.431 1456.47 Q153.26 1452.91 153.26 1445.8 Q153.26 1438.67 151.431 1435.13 Q149.626 1431.57 145.992 1431.57 M145.992 1427.86 Q151.802 1427.86 154.857 1432.47 Q157.936 1437.05 157.936 1445.8 Q157.936 1454.53 154.857 1459.14 Q151.802 1463.72 145.992 1463.72 Q140.181 1463.72 137.103 1459.14 Q134.047 1454.53 134.047 1445.8 Q134.047 1437.05 137.103 1432.47 Q140.181 1427.86 145.992 1427.86 Z" fill="#000000" fill-rule="evenodd" fill-opacity="1" /><path clip-path="url(#clip940)" d="M51.9875 1106.7 L81.6633 1106.7 L81.6633 1110.63 L51.9875 1110.63 L51.9875 1106.7 Z" fill="#000000" fill-rule="evenodd" fill-opacity="1" /><path clip-path="url(#clip940)" d="M101.756 1092.05 Q98.1447 1092.05 96.316 1095.61 Q94.5104 1099.15 94.5104 1106.28 Q94.5104 1113.39 96.316 1116.95 Q98.1447 1120.5 101.756 1120.5 Q105.39 1120.5 107.196 1116.95 Q109.024 1113.39 109.024 1106.28 Q109.024 1099.15 107.196 1095.61 Q105.39 1092.05 101.756 1092.05 M101.756 1088.34 Q107.566 1088.34 110.621 1092.95 Q113.7 1097.53 113.7 1106.28 Q113.7 1115.01 110.621 1119.62 Q107.566 1124.2 101.756 1124.2 Q95.9456 1124.2 92.8669 1119.62 Q89.8114 1115.01 89.8114 1106.28 Q89.8114 1097.53 92.8669 1092.95 Q95.9456 1088.34 101.756 1088.34 Z" fill="#000000" fill-rule="evenodd" fill-opacity="1" /><path clip-path="url(#clip940)" d="M121.918 1117.65 L126.802 1117.65 L126.802 1123.53 L121.918 1123.53 L121.918 1117.65 Z" fill="#000000" fill-rule="evenodd" fill-opacity="1" /><path clip-path="url(#clip940)" d="M137.033 1088.97 L155.39 1088.97 L155.39 1092.9 L141.316 1092.9 L141.316 1101.37 Q142.334 1101.03 143.353 1100.87 Q144.371 1100.68 145.39 1100.68 Q151.177 1100.68 154.556 1103.85 Q157.936 1107.02 157.936 1112.44 Q157.936 1118.02 154.464 1121.12 Q150.992 1124.2 144.672 1124.2 Q142.496 1124.2 140.228 1123.83 Q137.982 1123.46 135.575 1122.72 L135.575 1118.02 Q137.658 1119.15 139.881 1119.71 Q142.103 1120.26 144.58 1120.26 Q148.584 1120.26 150.922 1118.16 Q153.26 1116.05 153.26 1112.44 Q153.26 1108.83 150.922 1106.72 Q148.584 1104.62 144.58 1104.62 Q142.705 1104.62 140.83 1105.03 Q138.978 1105.45 137.033 1106.33 L137.033 1088.97 Z" fill="#000000" fill-rule="evenodd" fill-opacity="1" /><path clip-path="url(#clip940)" d="M100.76 752.526 Q97.1493 752.526 95.3206 756.091 Q93.515 759.632 93.515 766.762 Q93.515 773.868 95.3206 777.433 Q97.1493 780.975 100.76 780.975 Q104.395 780.975 106.2 777.433 Q108.029 773.868 108.029 766.762 Q108.029 759.632 106.2 756.091 Q104.395 752.526 100.76 752.526 M100.76 748.822 Q106.571 748.822 109.626 753.429 Q112.705 758.012 112.705 766.762 Q112.705 775.489 109.626 780.095 Q106.571 784.679 100.76 784.679 Q94.9502 784.679 91.8715 780.095 Q88.816 775.489 88.816 766.762 Q88.816 758.012 91.8715 753.429 Q94.9502 748.822 100.76 748.822 Z" fill="#000000" fill-rule="evenodd" fill-opacity="1" /><path clip-path="url(#clip940)" d="M120.922 778.128 L125.807 778.128 L125.807 784.007 L120.922 784.007 L120.922 778.128 Z" fill="#000000" fill-rule="evenodd" fill-opacity="1" /><path clip-path="url(#clip940)" d="M145.992 752.526 Q142.381 752.526 140.552 756.091 Q138.746 759.632 138.746 766.762 Q138.746 773.868 140.552 777.433 Q142.381 780.975 145.992 780.975 Q149.626 780.975 151.431 777.433 Q153.26 773.868 153.26 766.762 Q153.26 759.632 151.431 756.091 Q149.626 752.526 145.992 752.526 M145.992 748.822 Q151.802 748.822 154.857 753.429 Q157.936 758.012 157.936 766.762 Q157.936 775.489 154.857 780.095 Q151.802 784.679 145.992 784.679 Q140.181 784.679 137.103 780.095 Q134.047 775.489 134.047 766.762 Q134.047 758.012 137.103 753.429 Q140.181 748.822 145.992 748.822 Z" fill="#000000" fill-rule="evenodd" fill-opacity="1" /><path clip-path="url(#clip940)" d="M101.756 413.006 Q98.1447 413.006 96.316 416.57 Q94.5104 420.112 94.5104 427.242 Q94.5104 434.348 96.316 437.913 Q98.1447 441.455 101.756 441.455 Q105.39 441.455 107.196 437.913 Q109.024 434.348 109.024 427.242 Q109.024 420.112 107.196 416.57 Q105.39 413.006 101.756 413.006 M101.756 409.302 Q107.566 409.302 110.621 413.908 Q113.7 418.492 113.7 427.242 Q113.7 435.969 110.621 440.575 Q107.566 445.158 101.756 445.158 Q95.9456 445.158 92.8669 440.575 Q89.8114 435.969 89.8114 427.242 Q89.8114 418.492 92.8669 413.908 Q95.9456 409.302 101.756 409.302 Z" fill="#000000" fill-rule="evenodd" fill-opacity="1" /><path clip-path="url(#clip940)" d="M121.918 438.607 L126.802 438.607 L126.802 444.487 L121.918 444.487 L121.918 438.607 Z" fill="#000000" fill-rule="evenodd" fill-opacity="1" /><path clip-path="url(#clip940)" d="M137.033 409.927 L155.39 409.927 L155.39 413.862 L141.316 413.862 L141.316 422.334 Q142.334 421.987 143.353 421.825 Q144.371 421.64 145.39 421.64 Q151.177 421.64 154.556 424.811 Q157.936 427.982 157.936 433.399 Q157.936 438.978 154.464 442.08 Q150.992 445.158 144.672 445.158 Q142.496 445.158 140.228 444.788 Q137.982 444.418 135.575 443.677 L135.575 438.978 Q137.658 440.112 139.881 440.668 Q142.103 441.223 144.58 441.223 Q148.584 441.223 150.922 439.117 Q153.26 437.01 153.26 433.399 Q153.26 429.788 150.922 427.682 Q148.584 425.575 144.58 425.575 Q142.705 425.575 140.83 425.992 Q138.978 426.408 137.033 427.288 L137.033 409.927 Z" fill="#000000" fill-rule="evenodd" fill-opacity="1" /><path clip-path="url(#clip940)" d="M91.5706 101.032 L99.2095 101.032 L99.2095 74.666 L90.8993 76.3326 L90.8993 72.0734 L99.1632 70.4067 L103.839 70.4067 L103.839 101.032 L111.478 101.032 L111.478 104.967 L91.5706 104.967 L91.5706 101.032 Z" fill="#000000" fill-rule="evenodd" fill-opacity="1" /><path clip-path="url(#clip940)" d="M120.922 99.0871 L125.807 99.0871 L125.807 104.967 L120.922 104.967 L120.922 99.0871 Z" fill="#000000" fill-rule="evenodd" fill-opacity="1" /><path clip-path="url(#clip940)" d="M145.992 73.4854 Q142.381 73.4854 140.552 77.0502 Q138.746 80.5919 138.746 87.7215 Q138.746 94.8279 140.552 98.3927 Q142.381 101.934 145.992 101.934 Q149.626 101.934 151.431 98.3927 Q153.26 94.8279 153.26 87.7215 Q153.26 80.5919 151.431 77.0502 Q149.626 73.4854 145.992 73.4854 M145.992 69.7817 Q151.802 69.7817 154.857 74.3882 Q157.936 78.9715 157.936 87.7215 Q157.936 96.4483 154.857 101.055 Q151.802 105.638 145.992 105.638 Q140.181 105.638 137.103 101.055 Q134.047 96.4483 134.047 87.7215 Q134.047 78.9715 137.103 74.3882 Q140.181 69.7817 145.992 69.7817 Z" fill="#000000" fill-rule="evenodd" fill-opacity="1" /><polyline clip-path="url(#clip942)" style="stroke:#009af9; stroke-linecap:butt; stroke-linejoin:round; stroke-width:4; stroke-opacity:1; fill:none" points="
  255.035,195.334 277.664,161.561 300.293,133.835 322.922,112.432 345.551,97.567 368.18,89.3877 390.81,87.9763 413.439,93.3467 436.068,105.445 458.697,124.151 
  481.326,149.277 503.955,180.573 526.584,217.725 549.213,260.363 571.843,308.06 594.472,360.34 617.101,416.681 639.73,476.519 662.359,539.257 684.988,604.267 
  707.617,670.901 730.247,738.492 752.876,806.366 775.505,873.843 798.134,940.25 820.763,1004.92 843.392,1067.22 866.021,1126.51 888.651,1182.2 911.28,1233.75 
  933.909,1280.63 956.538,1322.37 979.167,1358.56 1001.8,1388.84 1024.43,1412.9 1047.05,1430.51 1069.68,1441.48 1092.31,1445.72 1114.94,1443.16 1137.57,1433.85 
  1160.2,1417.88 1182.83,1395.39 1205.46,1366.63 1228.09,1331.87 1250.72,1291.47 1273.35,1245.82 1295.98,1195.38 1318.6,1140.67 1341.23,1082.21 1363.86,1020.6 
  1386.49,956.462 1409.12,890.423 1431.75,823.148 1454.38,755.31 1477.01,687.586 1499.64,620.652 1522.27,555.178 1544.9,491.818 1567.52,431.204 1590.15,373.943 
  1612.78,320.607 1635.41,271.728 1658.04,227.795 1680.67,189.246 1703.3,156.468 1725.93,129.787 1748.56,109.471 1771.19,95.721 1793.82,88.6759 1816.45,88.4056 
  1839.07,94.9129 1861.7,108.133 1884.33,127.933 1906.96,154.116 1929.59,186.42 1952.22,224.522 1974.85,268.042 1997.48,316.544 2020.11,369.545 2042.74,426.514 
  2065.37,486.882 2087.99,550.047 2110.62,615.376 2133.25,682.218 2155.88,749.904 2178.51,817.758 2201.14,885.102 2223.77,951.264 2246.4,1015.58 2269.03,1077.41 
  2291.66,1136.14 
  "/>
<path clip-path="url(#clip940)" d="
M1988.5 198.898 L2280.8 198.898 L2280.8 95.2176 L1988.5 95.2176  Z
  " fill="#ffffff" fill-rule="evenodd" fill-opacity="1"/>
<polyline clip-path="url(#clip940)" style="stroke:#000000; stroke-linecap:butt; stroke-linejoin:round; stroke-width:4; stroke-opacity:1; fill:none" points="
  1988.5,198.898 2280.8,198.898 2280.8,95.2176 1988.5,95.2176 1988.5,198.898 
  "/>
<polyline clip-path="url(#clip940)" style="stroke:#009af9; stroke-linecap:butt; stroke-linejoin:round; stroke-width:4; stroke-opacity:1; fill:none" points="
  2012.48,147.058 2156.4,147.058 
  "/>
<path clip-path="url(#clip940)" d="M2194.23 166.745 Q2192.43 171.375 2190.72 172.787 Q2189 174.199 2186.13 174.199 L2182.73 174.199 L2182.73 170.634 L2185.23 170.634 Q2186.99 170.634 2187.96 169.8 Q2188.93 168.967 2190.11 165.865 L2190.88 163.921 L2180.39 138.412 L2184.91 138.412 L2193.01 158.689 L2201.11 138.412 L2205.62 138.412 L2194.23 166.745 Z" fill="#000000" fill-rule="evenodd" fill-opacity="1" /><path clip-path="url(#clip940)" d="M2212.91 160.402 L2220.55 160.402 L2220.55 134.037 L2212.24 135.703 L2212.24 131.444 L2220.51 129.778 L2225.18 129.778 L2225.18 160.402 L2232.82 160.402 L2232.82 164.338 L2212.91 164.338 L2212.91 160.402 Z" fill="#000000" fill-rule="evenodd" fill-opacity="1" /></svg>
