<?xml version="1.0" standalone="no"?>
<!DOCTYPE svg PUBLIC "-//W3C//DTD SVG 20010904//EN"
 "http://www.w3.org/TR/2001/REC-SVG-20010904/DTD/svg10.dtd">
<svg version="1.0" xmlns="http://www.w3.org/2000/svg"
 width="700.000000pt" height="700.000000pt" viewBox="0 0 700.000000 700.000000"
 preserveAspectRatio="xMidYMid meet">
<metadata>
Created by potrace 1.14, written by Peter Selinger 2001-2017
</metadata>
<g transform="translate(0.000000,700.000000) scale(0.100000,-0.100000)"
fill="#000000" stroke="none">
<path d="M3400 5997 c-2469 -1070 -3301 -1433 -3326 -1453 -18 -13 -42 -44
-54 -69 -44 -91 -12 -229 66 -280 13 -8 772 -340 1686 -737 1637 -710 1664
-721 1728 -721 64 -1 85 8 1230 505 l1165 506 5 -1191 5 -1192 22 -42 c74
-138 246 -165 354 -54 32 33 49 62 57 94 15 59 17 2462 2 2501 -5 15 -20 31
-32 36 -13 5 -655 91 -1428 190 -773 99 -1423 185 -1445 191 -59 16 -130 93
-143 155 -17 78 0 136 57 194 79 82 58 82 656 5 1681 -215 2538 -326 2599
-335 82 -13 114 -29 146 -78 47 -70 82 -79 146 -36 73 49 104 106 104 191 0
65 -34 138 -81 172 -16 12 -777 346 -1691 742 -1833 795 -1722 752 -1828 706z"/>
<path d="M1329 3129 c-20 -20 -20 -26 -17 -502 4 -466 5 -484 27 -557 49 -163
132 -300 266 -439 319 -331 821 -545 1470 -627 104 -13 213 -18 420 -18 284 0
397 8 615 45 758 128 1336 490 1519 950 56 143 61 195 61 685 0 431 -1 445
-20 464 -11 11 -32 20 -47 20 -15 0 -453 -184 -973 -409 -520 -225 -965 -415
-990 -422 -73 -21 -273 -16 -345 8 -33 11 -476 201 -985 422 -509 220 -937
401 -952 401 -16 0 -37 -9 -49 -21z"/>
</g>
</svg>
